<?xml version="1.0" encoding="UTF-8" standalone="no"?>
<svg width="13px" height="14px" viewBox="0 0 13 14" version="1.1" xmlns="http://www.w3.org/2000/svg" xmlns:xlink="http://www.w3.org/1999/xlink">
    <!-- Generator: Sketch 50.2 (55047) - http://www.bohemiancoding.com/sketch -->
    <title>Group 6</title>
    <desc>Created with Sketch.</desc>
    <defs></defs>
    <g id="Page-1" stroke="none" stroke-width="1" fill="none" fill-rule="evenodd">
        <g id="Mobile-Copy" transform="translate(-279.000000, -61.000000)" fill="#FFFFFF">
            <g id="Group-6" transform="translate(278.000000, 61.000000)">
                <path d="M0.21419811,8 L14.7870284,8 C15.4579035,8 16,7.55252525 16,7 C16,6.44747475 15.4579035,6 14.7870284,6 L0.21419811,6 C-0.456677007,6 -1,6.44747475 -1,7 C-1,7.55252525 -0.456677007,8 0.21419811,8 L0.21419811,8 Z" id="Path" transform="translate(7.500000, 7.000000) rotate(45.000000) translate(-7.500000, -7.000000) "></path>
                <path d="M0.21419811,8 L14.7870284,8 C15.4579035,8 16,7.55252525 16,7 C16,6.44747475 15.4579035,6 14.7870284,6 L0.21419811,6 C-0.456677007,6 -1,6.44747475 -1,7 C-1,7.55252525 -0.456677007,8 0.21419811,8 L0.21419811,8 Z" id="Path" transform="translate(7.500000, 7.000000) scale(-1, 1) rotate(45.000000) translate(-7.500000, -7.000000) "></path>
            </g>
        </g>
    </g>
</svg>