<?xml version="1.0" encoding="UTF-8" standalone="no"?>
<svg width="151px" height="70px" viewBox="0 0 151 70" version="1.1" xmlns="http://www.w3.org/2000/svg" xmlns:xlink="http://www.w3.org/1999/xlink">
    <!-- Generator: Sketch 50.2 (55047) - http://www.bohemiancoding.com/sketch -->
    <title>idfive_logo_cmyk_teal copy</title>
    <desc>Created with Sketch.</desc>
    <defs></defs>
    <g id="Page-1" stroke="none" stroke-width="1" fill="none" fill-rule="evenodd">
        <g id="Dev-Test-1" transform="translate(-86.000000, -3024.000000)" fill="#FFFFFF">
            <g id="Stacked-Group-2" transform="translate(86.000000, 3015.000000)">
                <g id="idfive_logo_cmyk_teal-copy" transform="translate(0.000000, 9.000000)">
                    <path d="M37.1024915,37.6047032 C37.1024915,37.0079452 37.1024915,36.3450228 36.9697267,35.7482648 C36.3724449,33.0294521 34.182625,30.8409132 31.0628114,30.8409132 C26.4163623,30.8409132 24.0934576,34.9517352 24.0934576,40.0585388 C24.0934576,45.4958447 26.8152966,48.9440639 30.996589,48.9440639 C33.9170953,48.9440639 36.3065424,46.9549772 36.9035042,44.1038356 C37.036589,43.4405936 37.1024915,42.6453425 37.1024915,41.8491324 L37.1024915,37.6047032 Z M47.191339,4.87123288 L47.191339,46.5576712 C47.191339,50.2702283 47.3241038,54.0508676 47.4568686,56.2384475 L38.4966822,56.2384475 L38.0977479,51.5308676 L37.8990805,51.5308676 C35.9082479,55.1110959 31.925303,56.9678539 27.7443305,56.9678539 C20.0446102,56.9678539 13.8724852,50.4031963 13.8724852,40.3238356 C13.8062627,29.4479452 20.6422119,23.0824201 28.4081547,23.0824201 C32.4563623,23.0824201 35.5099534,24.5409132 36.9697267,26.7294521 L37.1024915,26.7294521 L37.1024915,4.87123288 L47.191339,4.87123288 L47.191339,4.87123288 Z" id="Fill-1"></path>
                    <path d="M52.6286186,56.2384475 L52.6286186,54.3676256 L58.8983178,54.3676256 L58.8983178,25.8945662 L52.6286186,25.8945662 L52.6286186,24.023105 L58.8983178,24.023105 L58.8983178,20.036621 C58.8983178,6.85712329 65.5749492,0.023652968 74.3690996,0.023652968 C78.1965657,0.023652968 84.3843665,1.48789954 84.3843665,6.45054795 C84.3843665,8.15899543 82.6750593,9.86744292 81.0463708,9.86744292 C78.8475932,9.86744292 77.3001631,8.15899543 77.3001631,5.96182648 C77.3001631,4.57940639 78.8475932,3.52237443 78.8475932,3.3590411 C78.8475932,2.22082192 75.590536,1.56940639 74.2062627,1.56940639 C66.9598623,1.56940639 65.2502352,9.86744292 65.2502352,18.1654795 L65.2502352,24.023105 L77.2189047,24.023105 C80.2325064,24.023105 83.4076653,23.9412785 86.3387288,23.2093151 L86.3387288,54.3676256 L91.1425763,54.3676256 L91.1425763,56.2384475 L75.1017055,56.2384475 L75.1017055,54.3676256 L79.9874513,54.3676256 L79.9874513,25.8945662 L65.2502352,25.8945662 L65.2502352,54.3676256 L70.2165996,54.3676256 L70.2165996,56.2384475 L52.6286186,56.2384475" id="Fill-2"></path>
                    <polyline id="Fill-3" points="89.5145275 25.8945662 89.5145275 24.023105 104.171765 24.023105 104.171765 25.8945662 99.856428 25.8945662 107.754496 49.2422831 107.917013 49.2422831 116.140754 25.8945662 111.17343 25.8945662 111.17343 24.023105 122.247617 24.023105 122.247617 25.8945662 118.338892 25.8945662 107.102508 57.2964384 104.334602 57.2964384 93.4229322 25.8945662 89.5145275 25.8945662"></polyline>
                    <g id="Group-7" transform="translate(0.000000, 23.013699)">
                        <path d="M143.579246,12.3174429 L143.579246,9.5513242 C143.579246,3.693379 140.159032,1.82255708 136.08875,1.82255708 C131.202684,1.82255708 129.004547,6.37863014 128.84171,6.94757991 C128.352559,8.41182648 128.109104,10.2836073 128.027525,12.3174429 L143.579246,12.3174429 Z M150.907544,23.1373973 C149.278856,30.7031507 143.742083,34.2827397 136.576301,34.2827397 C128.271941,34.2827397 120.291655,27.6119635 120.291655,18.5826027 C120.291655,8.98173516 126.642612,0.195616438 136.332845,0.195616438 C144.637845,0.195616438 150.907544,5.80936073 150.988803,14.6769863 L127.945307,14.6769863 L127.945307,18.0123744 C127.945307,26.0665297 129.004547,32.5742922 137.878996,32.5742922 C142.521286,32.5742922 147.976161,28.5069406 149.116019,23.1373973 L150.907544,23.1373973 L150.907544,23.1373973 Z" id="Fill-4"></path>
                        <polygon id="Fill-6" points="0.0191949153 33.2247489 10.0888475 33.2247489 10.0888475 0.797808219 0.0191949153 0.797808219"></polygon>
                    </g>
                    <polygon id="Fill-8" points="52.646214 69.5959817 53.5909237 69.5959817 53.5909237 64.4249315 52.646214 64.4249315"></polygon>
                    <path d="M57.1301462,69.5959817 L57.1301462,64.4249315 L58.2050614,64.4249315 L59.5413475,66.6422374 C59.8868559,67.2178995 60.1862966,67.8162557 60.4243136,68.3762557 L60.4396695,68.3762557 C60.3782458,67.6858447 60.3552119,67.0184475 60.3552119,66.2279909 L60.3552119,64.4249315 L61.2305,64.4249315 L61.2305,69.5959817 L60.2553983,69.5959817 L58.9040763,67.3252968 C58.5736038,66.7573059 58.2280953,66.1205936 57.9747225,65.5375799 L57.9516886,65.5452511 C57.9903983,66.2126484 57.9977564,66.8953881 57.9977564,67.7472146 L57.9977564,69.5959817 L57.1301462,69.5959817" id="Fill-9"></path>
                    <polyline id="Fill-10" points="64.7774004 64.4249315 67.7644492 64.4249315 67.7644492 65.2000457 65.7221102 65.2000457 65.7221102 66.626895 67.6262458 66.626895 67.6262458 67.4020091 65.7221102 67.4020091 65.7221102 69.5959817 64.7774004 69.5959817 64.7774004 64.4249315"></polyline>
                    <path d="M71.8718411,67.03379 C71.8718411,68.0847489 72.4016208,68.9209132 73.3076208,68.9209132 C74.2216186,68.9209132 74.7360424,68.0770776 74.7360424,66.9951142 C74.7360424,66.0211872 74.2523305,65.1003196 73.3076208,65.1003196 C72.3709089,65.1003196 71.8718411,65.9674886 71.8718411,67.03379 Z M75.734178,66.956758 C75.734178,68.6907763 74.6822966,69.6803653 73.253875,69.6803653 C71.7950614,69.6803653 70.8737055,68.5680365 70.8737055,67.0488128 C70.8737055,65.4608676 71.8718411,64.3408676 73.3309746,64.3408676 C74.8435339,64.3408676 75.734178,65.4838813 75.734178,66.956758 L75.734178,66.956758 Z" id="Fill-11"></path>
                    <path d="M79.9413835,66.7806393 L80.501875,66.7806393 C81.1391462,66.7806393 81.5384004,66.4427854 81.5384004,65.9288128 C81.5384004,65.3611416 81.1391462,65.1003196 80.5249089,65.1003196 C80.2251483,65.1003196 80.0335191,65.1233333 79.9413835,65.146347 L79.9413835,66.7806393 Z M79.0043517,64.4942922 C79.3578581,64.4329224 79.8876377,64.3865753 80.4327733,64.3865753 C81.177536,64.3865753 81.6842818,64.5096347 82.0297903,64.8011416 C82.313875,65.0389498 82.4754322,65.3994977 82.4754322,65.836758 C82.4754322,66.5041553 82.0224322,66.956758 81.5384004,67.1331963 L81.5384004,67.15621 C81.9069428,67.2946119 82.1299237,67.6551598 82.2601292,68.1534703 C82.4216864,68.7981735 82.5595699,69.3965297 82.6670614,69.5959817 L81.6919597,69.5959817 C81.6151801,69.4425571 81.4923326,69.0206393 81.3464513,68.3762557 C81.2005699,67.7008676 80.954875,67.4863927 80.4174174,67.4710502 L79.9413835,67.4710502 L79.9413835,69.5959817 L79.0043517,69.5959817 L79.0043517,64.4942922 L79.0043517,64.4942922 Z" id="Fill-12"></path>
                    <path d="M90.1991462,67.4863927 C90.1687542,66.8189954 90.1300445,66.0131963 90.1380424,65.3151142 L90.1150085,65.3151142 C89.9457733,65.9441553 89.7307903,66.6422374 89.5007712,67.2946119 L88.7480106,69.5346119 L88.0186038,69.5346119 L87.3275869,67.3252968 C87.1279597,66.6652511 86.9433686,65.9594977 86.8054852,65.3151142 L86.7901292,65.3151142 C86.7670953,65.9901826 86.7363835,66.8110046 86.6979936,67.516758 L86.5828242,69.5959817 L85.6995381,69.5959817 L86.0450466,64.4249315 L87.289197,64.4249315 L87.9648581,66.5041553 C88.1491292,67.1105023 88.3103665,67.7242009 88.4408919,68.2992237 L88.4639258,68.2992237 C88.6021292,67.7395434 88.7787225,67.1025114 88.9783496,66.496484 L89.6924004,64.4249315 L90.9211949,64.4249315 L91.2206356,69.5959817 L90.2992797,69.5959817 L90.1991462,67.4863927" id="Fill-13"></path>
                    <polyline id="Fill-14" points="97.5316038 67.3019635 95.5810805 67.3019635 95.5810805 68.8211872 97.7619428 68.8211872 97.7619428 69.5959817 94.6366907 69.5959817 94.6366907 64.4249315 97.6470932 64.4249315 97.6470932 65.2000457 95.5810805 65.2000457 95.5810805 66.5348402 97.5316038 66.5348402 97.5316038 67.3019635"></polyline>
                    <path d="M101.992502,68.8748858 C102.123028,68.8978995 102.322655,68.8978995 102.514284,68.8978995 C103.743078,68.9055708 104.472485,68.2305023 104.472485,66.9184018 C104.480163,65.7753881 103.819858,65.1233333 102.637451,65.1233333 C102.338011,65.1233333 102.123028,65.146347 101.992502,65.177032 L101.992502,68.8748858 Z M101.047792,64.4942922 C101.462403,64.4249315 101.992502,64.3865753 102.552674,64.3865753 C103.520417,64.3865753 104.18872,64.5860274 104.664434,64.9852511 C105.163822,65.3918265 105.470941,66.0055251 105.470941,66.8877169 C105.470941,67.8082648 105.155824,68.4989954 104.664434,68.9439269 C104.150331,69.4118721 103.328468,69.6496804 102.322655,69.6496804 C101.769521,69.6496804 101.354911,69.6189954 101.047792,69.5806393 L101.047792,64.4942922 L101.047792,64.4942922 Z" id="Fill-15"></path>
                    <path d="M113.73947,68.8748858 C113.869996,68.8978995 114.069623,68.8978995 114.261572,68.8978995 C115.490367,68.9055708 116.219773,68.2305023 116.219773,66.9184018 C116.227451,65.7753881 115.567146,65.1233333 114.384739,65.1233333 C114.084979,65.1233333 113.869996,65.146347 113.73947,65.177032 L113.73947,68.8748858 Z M112.795081,64.4942922 C113.209691,64.4249315 113.73947,64.3865753 114.299962,64.3865753 C115.267706,64.3865753 115.935689,64.5860274 116.411722,64.9852511 C116.91079,65.3918265 117.217909,66.0055251 117.217909,66.8877169 C117.217909,67.8082648 116.903112,68.4989954 116.411722,68.9439269 C115.897299,69.4118721 115.075756,69.6496804 114.069623,69.6496804 C113.516809,69.6496804 113.102199,69.6189954 112.795081,69.5806393 L112.795081,64.4942922 L112.795081,64.4942922 Z" id="Fill-16"></path>
                    <polyline id="Fill-17" points="123.390674 67.3019635 121.44047 67.3019635 121.44047 68.8211872 123.621013 68.8211872 123.621013 69.5959817 120.495761 69.5959817 120.495761 64.4249315 123.506163 64.4249315 123.506163 65.2000457 121.44047 65.2000457 121.44047 66.5348402 123.390674 66.5348402 123.390674 67.3019635"></polyline>
                    <path d="M126.883828,68.5680365 C127.190947,68.7444749 127.651945,68.8978995 128.135657,68.8978995 C128.742216,68.8978995 129.080047,68.6140639 129.080047,68.1921461 C129.080047,67.8009132 128.818996,67.5704566 128.158691,67.3326484 C127.306117,67.0257991 126.760981,66.5731963 126.760981,65.8290868 C126.760981,64.9852511 127.467354,64.3408676 128.588657,64.3408676 C129.149148,64.3408676 129.563758,64.4636073 129.832487,64.6016895 L129.602148,65.3611416 C129.417877,65.2614155 129.057013,65.1156621 128.573301,65.1156621 C127.9741,65.1156621 127.713369,65.4378539 127.713369,65.737032 C127.713369,66.1359361 128.012489,66.3200457 128.703826,66.5885388 C129.602148,66.9263927 130.039792,67.3789954 130.039792,68.123105 C130.039792,68.9515982 129.410519,69.6726941 128.074233,69.6726941 C127.529097,69.6726941 126.960608,69.5192694 126.676843,69.3508219 L126.883828,68.5680365" id="Fill-18"></path>
                    <polygon id="Fill-19" points="133.348996 69.5959817 134.293386 69.5959817 134.293386 64.4249315 133.348996 64.4249315"></polygon>
                    <path d="M141.97935,69.3581735 C141.648877,69.4809132 141.004248,69.6496804 140.313231,69.6496804 C139.437623,69.6496804 138.777318,69.4272146 138.285928,68.9592694 C137.82493,68.5220091 137.556521,67.8392694 137.564199,67.0568037 C137.564199,65.4225114 138.73125,64.3712329 140.443756,64.3712329 C141.081028,64.3712329 141.580095,64.5019635 141.818112,64.617032 L141.610487,65.376484 C141.326722,65.2537443 140.981214,65.1540183 140.435758,65.1540183 C139.330131,65.1540183 138.554657,65.8060731 138.554657,67.0104566 C138.554657,68.1844749 139.276386,68.8825571 140.351621,68.8825571 C140.689131,68.8825571 140.942504,68.8365297 141.065352,68.7751598 L141.065352,67.4863927 L140.151994,67.4863927 L140.151994,66.7419635 L141.97935,66.7419635 L141.97935,69.3581735" id="Fill-20"></path>
                    <path d="M145.403083,69.5959817 L145.403083,64.4249315 L146.477998,64.4249315 L147.814284,66.6422374 C148.159792,67.2178995 148.459233,67.8162557 148.69725,68.3762557 L148.712606,68.3762557 C148.651182,67.6858447 148.628148,67.0184475 148.628148,66.2279909 L148.628148,64.4249315 L149.503436,64.4249315 L149.503436,69.5959817 L148.528015,69.5959817 L147.177013,67.3252968 C146.84686,66.7573059 146.501032,66.1205936 146.247659,65.5375799 L146.224625,65.5452511 C146.263015,66.2126484 146.270693,66.8953881 146.270693,67.7472146 L146.270693,69.5959817 L145.403083,69.5959817" id="Fill-21"></path>
                </g>
            </g>
        </g>
    </g>
</svg>