<?xml version="1.0" encoding="UTF-8" standalone="no"?>
<svg width="14px" height="15px" viewBox="0 0 14 15" version="1.1" xmlns="http://www.w3.org/2000/svg" xmlns:xlink="http://www.w3.org/1999/xlink">
    <!-- Generator: Sketch 50.2 (55047) - http://www.bohemiancoding.com/sketch -->
    <title>icon/search</title>
    <desc>Created with Sketch.</desc>
    <defs>
        <path d="M6.25007997,2.75999999 C8.17991996,2.75999999 9.74983995,4.33871998 9.74983995,6.27999997 C9.74983995,7.01127997 9.52543995,7.71439996 9.10127996,8.31455996 L8.75631996,8.80119996 L8.27231996,9.14703996 C7.67567996,9.57383995 6.97607997,9.79999995 6.25007997,9.79999995 C4.32023998,9.79999995 2.75031999,8.22127996 2.75031999,6.27999997 C2.75031999,4.33871998 4.32023998,2.75999999 6.25007997,2.75999999 Z M6.25007997,1 C3.35047999,1 1,3.36367999 1,6.27999997 C1,9.19631996 3.35047999,11.5599999 6.25007997,11.5599999 C7.38351997,11.5599999 8.42983996,11.1956799 9.28695996,10.5814399 L13.5030399,14.8221599 C13.6746399,14.9946399 13.8990399,15.0799999 14.1234399,15.0799999 C14.3478399,15.0799999 14.5722399,14.9937599 14.7429599,14.8221599 C15.0852799,14.4780799 15.0852799,13.9201599 14.7429599,13.5760799 L10.5268799,9.33535995 C11.1375999,8.47295996 11.4992799,7.41959997 11.4992799,6.28087997 C11.4992799,3.36455999 9.14879996,1.00088 6.25007997,1.00088 L6.25007997,1 Z" id="path-1"></path>
    </defs>
    <g id="Page-1" stroke="none" stroke-width="1" fill="none" fill-rule="evenodd">
        <g id="Mobile-Copy" transform="translate(-265.000000, -476.000000)">
            <g id="Icon/Search/Option-4" transform="translate(264.000000, 475.000000)">
                <mask id="mask-2" fill="white">
                    <use xlink:href="#path-1"></use>
                </mask>
                <use id="Mask" fill="#FFFFFF" fill-rule="nonzero" xlink:href="#path-1"></use>
                <g id="Fills/White" mask="url(#mask-2)" fill="#FFFFFF" fill-rule="evenodd">
                    <rect id="White" x="0" y="0" width="16" height="16"></rect>
                </g>
            </g>
        </g>
    </g>
</svg>